<?xml version="1.0" encoding="UTF-8" standalone="no"?><svg xmlns="http://www.w3.org/2000/svg" xmlns:xlink="http://www.w3.org/1999/xlink" contentScriptType="application/ecmascript" contentStyleType="text/css" height="631px" preserveAspectRatio="none" style="width:716px;height:631px;" version="1.1" viewBox="0 0 716 631" width="716px" zoomAndPan="magnify"><defs><filter height="300%" id="f14qfdldssvbja" width="300%" x="-1" y="-1"><feGaussianBlur result="blurOut" stdDeviation="2.0"/><feColorMatrix in="blurOut" result="blurOut2" type="matrix" values="0 0 0 0 0 0 0 0 0 0 0 0 0 0 0 0 0 0 .4 0"/><feOffset dx="4.0" dy="4.0" in="blurOut2" result="blurOut3"/><feBlend in="SourceGraphic" in2="blurOut3" mode="normal"/></filter></defs><g><rect fill="#DDDDDD" height="609.1172" style="stroke: #A80036; stroke-width: 1.0;" width="318" x="4" y="4"/><text fill="#000000" font-family="sans-serif" font-size="13" font-weight="bold" lengthAdjust="spacingAndGlyphs" textLength="46" x="140" y="16.0669">server</text><rect fill="#DDDDDD" height="609.1172" style="stroke: #A80036; stroke-width: 1.0;" width="358.5" x="347" y="4"/><text fill="#000000" font-family="sans-serif" font-size="13" font-weight="bold" lengthAdjust="spacingAndGlyphs" textLength="40" x="506.25" y="16.0669">client</text><line style="stroke: #A80036; stroke-width: 1.0; stroke-dasharray: 5.0,5.0;" x1="39" x2="39" y1="74.7266" y2="619.1172"/><line style="stroke: #A80036; stroke-width: 1.0; stroke-dasharray: 5.0,5.0;" x1="155" x2="155" y1="74.7266" y2="619.1172"/><line style="stroke: #A80036; stroke-width: 1.0; stroke-dasharray: 5.0,5.0;" x1="267" x2="267" y1="74.7266" y2="619.1172"/><line style="stroke: #A80036; stroke-width: 1.0; stroke-dasharray: 5.0,5.0;" x1="411" x2="411" y1="74.7266" y2="619.1172"/><line style="stroke: #A80036; stroke-width: 1.0; stroke-dasharray: 5.0,5.0;" x1="541" x2="541" y1="74.7266" y2="619.1172"/><line style="stroke: #A80036; stroke-width: 1.0; stroke-dasharray: 5.0,5.0;" x1="672.5" x2="672.5" y1="74.7266" y2="619.1172"/><rect fill="#FEFECE" filter="url(#f14qfdldssvbja)" height="30.2969" style="stroke: #A80036; stroke-width: 1.5;" width="58" x="8" y="39.4297"/><text fill="#000000" font-family="sans-serif" font-size="14" lengthAdjust="spacingAndGlyphs" textLength="44" x="15" y="59.4248">Server</text><rect fill="#FEFECE" filter="url(#f14qfdldssvbja)" height="46.5938" style="stroke: #A80036; stroke-width: 1.5;" width="98" x="104" y="23.1328"/><text fill="#000000" font-family="sans-serif" font-size="14" lengthAdjust="spacingAndGlyphs" textLength="32" x="137" y="43.1279">eth1</text><text fill="#000000" font-family="sans-serif" font-size="14" lengthAdjust="spacingAndGlyphs" textLength="84" x="111" y="59.4248">192.168.1.1</text><rect fill="#FEFECE" filter="url(#f14qfdldssvbja)" height="46.5938" style="stroke: #A80036; stroke-width: 1.5;" width="98" x="216" y="23.1328"/><text fill="#000000" font-family="sans-serif" font-size="14" lengthAdjust="spacingAndGlyphs" textLength="32" x="249" y="43.1279">eth2</text><text fill="#000000" font-family="sans-serif" font-size="14" lengthAdjust="spacingAndGlyphs" textLength="84" x="223" y="59.4248">192.168.4.1</text><rect fill="#FEFECE" filter="url(#f14qfdldssvbja)" height="46.5938" style="stroke: #A80036; stroke-width: 1.5;" width="116" x="351" y="23.1328"/><text fill="#000000" font-family="sans-serif" font-size="14" lengthAdjust="spacingAndGlyphs" textLength="32" x="393" y="43.1279">eth1</text><text fill="#000000" font-family="sans-serif" font-size="14" lengthAdjust="spacingAndGlyphs" textLength="102" x="358" y="59.4248">192.168.2.221</text><rect fill="#FEFECE" filter="url(#f14qfdldssvbja)" height="46.5938" style="stroke: #A80036; stroke-width: 1.5;" width="116" x="481" y="23.1328"/><text fill="#000000" font-family="sans-serif" font-size="14" lengthAdjust="spacingAndGlyphs" textLength="32" x="523" y="43.1279">eth2</text><text fill="#000000" font-family="sans-serif" font-size="14" lengthAdjust="spacingAndGlyphs" textLength="102" x="488" y="59.4248">192.168.6.221</text><rect fill="#FEFECE" filter="url(#f14qfdldssvbja)" height="30.2969" style="stroke: #A80036; stroke-width: 1.5;" width="53" x="644.5" y="39.4297"/><text fill="#000000" font-family="sans-serif" font-size="14" lengthAdjust="spacingAndGlyphs" textLength="39" x="651.5" y="59.4248">Client</text><polygon fill="#A80036" points="422,101.8594,412,105.8594,422,109.8594,418,105.8594" style="stroke: #A80036; stroke-width: 1.0;"/><line style="stroke: #A80036; stroke-width: 1.0;" x1="416" x2="672" y1="105.8594" y2="105.8594"/><text fill="#000000" font-family="sans-serif" font-size="13" lengthAdjust="spacingAndGlyphs" textLength="23" x="428" y="100.7935">INIT</text><polygon fill="#A80036" points="166,130.9922,156,134.9922,166,138.9922,162,134.9922" style="stroke: #A80036; stroke-width: 1.0;"/><line style="stroke: #A80036; stroke-width: 1.0;" x1="160" x2="410" y1="134.9922" y2="134.9922"/><text fill="#000000" font-family="sans-serif" font-size="13" lengthAdjust="spacingAndGlyphs" textLength="231" x="172" y="129.9263">"INIT(192.168.2.221,192.168.6.221)"</text><polygon fill="#A80036" points="50,160.125,40,164.125,50,168.125,46,164.125" style="stroke: #A80036; stroke-width: 1.0;"/><line style="stroke: #A80036; stroke-width: 1.0;" x1="44" x2="154" y1="164.125" y2="164.125"/><text fill="#000000" font-family="sans-serif" font-size="13" lengthAdjust="spacingAndGlyphs" textLength="23" x="56" y="159.0591">INIT</text><polygon fill="#A80036" points="143,189.2578,153,193.2578,143,197.2578,147,193.2578" style="stroke: #A80036; stroke-width: 1.0;"/><line style="stroke: #A80036; stroke-width: 1.0;" x1="39" x2="149" y1="193.2578" y2="193.2578"/><text fill="#000000" font-family="sans-serif" font-size="13" lengthAdjust="spacingAndGlyphs" textLength="56" x="46" y="188.1919">INIT_ACK</text><polygon fill="#A80036" points="399,218.3906,409,222.3906,399,226.3906,403,222.3906" style="stroke: #A80036; stroke-width: 1.0;"/><line style="stroke: #A80036; stroke-width: 1.0;" x1="155" x2="405" y1="222.3906" y2="222.3906"/><text fill="#000000" font-family="sans-serif" font-size="13" lengthAdjust="spacingAndGlyphs" textLength="232" x="162" y="217.3247">"INIT_ACK(192.168.1.1,192.168.4.1)"</text><polygon fill="#A80036" points="661,247.5234,671,251.5234,661,255.5234,665,251.5234" style="stroke: #A80036; stroke-width: 1.0;"/><line style="stroke: #A80036; stroke-width: 1.0;" x1="411" x2="667" y1="251.5234" y2="251.5234"/><text fill="#000000" font-family="sans-serif" font-size="13" lengthAdjust="spacingAndGlyphs" textLength="56" x="418" y="246.4575">INIT_ACK</text><polygon fill="#A80036" points="422,276.6563,412,280.6563,422,284.6563,418,280.6563" style="stroke: #A80036; stroke-width: 1.0;"/><line style="stroke: #A80036; stroke-width: 1.0;" x1="416" x2="672" y1="280.6563" y2="280.6563"/><text fill="#000000" font-family="sans-serif" font-size="13" lengthAdjust="spacingAndGlyphs" textLength="92" x="428" y="275.5903">COOKIE_ECHO</text><polygon fill="#A80036" points="166,305.7891,156,309.7891,166,313.7891,162,309.7891" style="stroke: #A80036; stroke-width: 1.0;"/><line style="stroke: #A80036; stroke-width: 1.0;" x1="160" x2="410" y1="309.7891" y2="309.7891"/><text fill="#000000" font-family="sans-serif" font-size="13" lengthAdjust="spacingAndGlyphs" textLength="92" x="172" y="304.7231">COOKIE_ECHO</text><polygon fill="#A80036" points="50,334.9219,40,338.9219,50,342.9219,46,338.9219" style="stroke: #A80036; stroke-width: 1.0;"/><line style="stroke: #A80036; stroke-width: 1.0;" x1="44" x2="154" y1="338.9219" y2="338.9219"/><text fill="#000000" font-family="sans-serif" font-size="13" lengthAdjust="spacingAndGlyphs" textLength="92" x="56" y="333.856">COOKIE_ECHO</text><polygon fill="#A80036" points="143,364.0547,153,368.0547,143,372.0547,147,368.0547" style="stroke: #A80036; stroke-width: 1.0;"/><line style="stroke: #A80036; stroke-width: 1.0;" x1="39" x2="149" y1="368.0547" y2="368.0547"/><text fill="#000000" font-family="sans-serif" font-size="13" lengthAdjust="spacingAndGlyphs" textLength="81" x="46" y="362.9888">COOKIE_ACK</text><polygon fill="#A80036" points="399,393.1875,409,397.1875,399,401.1875,403,397.1875" style="stroke: #A80036; stroke-width: 1.0;"/><line style="stroke: #A80036; stroke-width: 1.0;" x1="155" x2="405" y1="397.1875" y2="397.1875"/><text fill="#000000" font-family="sans-serif" font-size="13" lengthAdjust="spacingAndGlyphs" textLength="81" x="162" y="392.1216">COOKIE_ACK</text><polygon fill="#A80036" points="661,422.3203,671,426.3203,661,430.3203,665,426.3203" style="stroke: #A80036; stroke-width: 1.0;"/><line style="stroke: #A80036; stroke-width: 1.0;" x1="411" x2="667" y1="426.3203" y2="426.3203"/><text fill="#000000" font-family="sans-serif" font-size="13" lengthAdjust="spacingAndGlyphs" textLength="81" x="418" y="421.2544">COOKIE_ACK</text><polygon fill="#A80036" points="255,451.4531,265,455.4531,255,459.4531,259,455.4531" style="stroke: #A80036; stroke-width: 1.0;"/><line style="stroke: #A80036; stroke-width: 1.0;" x1="39" x2="261" y1="455.4531" y2="455.4531"/><text fill="#000000" font-family="sans-serif" font-size="13" lengthAdjust="spacingAndGlyphs" textLength="75" x="46" y="450.3872">HEARTBEAT</text><polygon fill="#A80036" points="529,480.5859,539,484.5859,529,488.5859,533,484.5859" style="stroke: #A80036; stroke-width: 1.0;"/><line style="stroke: #A80036; stroke-width: 1.0;" x1="267" x2="535" y1="484.5859" y2="484.5859"/><text fill="#000000" font-family="sans-serif" font-size="13" lengthAdjust="spacingAndGlyphs" textLength="75" x="274" y="479.52">HEARTBEAT</text><polygon fill="#A80036" points="661,509.7188,671,513.7188,661,517.7188,665,513.7188" style="stroke: #A80036; stroke-width: 1.0;"/><line style="stroke: #A80036; stroke-width: 1.0;" x1="541" x2="667" y1="513.7188" y2="513.7188"/><text fill="#000000" font-family="sans-serif" font-size="13" lengthAdjust="spacingAndGlyphs" textLength="75" x="548" y="508.6528">HEARTBEAT</text><polygon fill="#A80036" points="552,538.8516,542,542.8516,552,546.8516,548,542.8516" style="stroke: #A80036; stroke-width: 1.0;"/><line style="stroke: #A80036; stroke-width: 1.0;" x1="546" x2="672" y1="542.8516" y2="542.8516"/><text fill="#000000" font-family="sans-serif" font-size="13" lengthAdjust="spacingAndGlyphs" textLength="108" x="558" y="537.7856">HEARTBEAT_ACK</text><polygon fill="#A80036" points="278,567.9844,268,571.9844,278,575.9844,274,571.9844" style="stroke: #A80036; stroke-width: 1.0;"/><line style="stroke: #A80036; stroke-width: 1.0;" x1="272" x2="540" y1="571.9844" y2="571.9844"/><text fill="#000000" font-family="sans-serif" font-size="13" lengthAdjust="spacingAndGlyphs" textLength="108" x="284" y="566.9185">HEARTBEAT_ACK</text><polygon fill="#A80036" points="50,597.1172,40,601.1172,50,605.1172,46,601.1172" style="stroke: #A80036; stroke-width: 1.0;"/><line style="stroke: #A80036; stroke-width: 1.0;" x1="44" x2="266" y1="601.1172" y2="601.1172"/><text fill="#000000" font-family="sans-serif" font-size="13" lengthAdjust="spacingAndGlyphs" textLength="108" x="56" y="596.0513">HEARTBEAT_ACK</text><!--
@startuml
hide footbox
box "server"
participant Server
participant "eth1\n192.168.1.1" as s1
participant "eth2\n192.168.4.1" as s2
end box
box "client"
participant "eth1\n192.168.2.221" as c1
participant "eth2\n192.168.6.221" as c2
participant "Client"
end box

Client -> c1 : INIT
c1 -> s1 : "INIT(192.168.2.221,192.168.6.221)"
s1 -> Server : INIT

Server -> s1 : INIT_ACK
s1 -> c1 : "INIT_ACK(192.168.1.1,192.168.4.1)"
c1 -> Client : INIT_ACK

Client -> c1 : COOKIE_ECHO
c1 -> s1 : COOKIE_ECHO
s1 -> Server : COOKIE_ECHO

Server -> s1 : COOKIE_ACK
s1 -> c1 : COOKIE_ACK
c1 -> Client : COOKIE_ACK

Server -> s2 : HEARTBEAT
s2 -> c2 : HEARTBEAT
c2 -> Client : HEARTBEAT
Client -> c2 : HEARTBEAT_ACK
c2 -> s2 : HEARTBEAT_ACK
s2 -> Server : HEARTBEAT_ACK

@enduml

PlantUML version 1.2019.00(Sun Jan 13 16:46:42 CET 2019)
(GPL source distribution)
Java Runtime: OpenJDK Runtime Environment
JVM: OpenJDK 64-Bit Server VM
Java Version: 1.8.0_292-8u292-b10-0ubuntu1~20.04-b10
Operating System: Linux
OS Version: 5.4.0-80-generic
Default Encoding: UTF-8
Language: en
Country: US
--></g></svg>