<?xml version="1.0" encoding="UTF-8" standalone="no"?><svg xmlns="http://www.w3.org/2000/svg" xmlns:xlink="http://www.w3.org/1999/xlink" contentScriptType="application/ecmascript" contentStyleType="text/css" height="1097px" preserveAspectRatio="none" style="width:825px;height:1097px;" version="1.1" viewBox="0 0 825 1097" width="825px" zoomAndPan="magnify"><defs><filter height="300%" id="fnmshmyjm67m1" width="300%" x="-1" y="-1"><feGaussianBlur result="blurOut" stdDeviation="2.0"/><feColorMatrix in="blurOut" result="blurOut2" type="matrix" values="0 0 0 0 0 0 0 0 0 0 0 0 0 0 0 0 0 0 .4 0"/><feOffset dx="4.0" dy="4.0" in="blurOut2" result="blurOut3"/><feBlend in="SourceGraphic" in2="blurOut3" mode="normal"/></filter></defs><g><rect fill="#DDDDDD" height="1075.2422" style="stroke: #A80036; stroke-width: 1.0;" width="447" x="4" y="4"/><text fill="#000000" font-family="sans-serif" font-size="13" font-weight="bold" lengthAdjust="spacingAndGlyphs" textLength="40" x="207.5" y="16.0669">client</text><rect fill="#DDDDDD" height="1075.2422" style="stroke: #A80036; stroke-width: 1.0;" width="361" x="453" y="4"/><text fill="#000000" font-family="sans-serif" font-size="13" font-weight="bold" lengthAdjust="spacingAndGlyphs" textLength="46" x="610.5" y="16.0669">server</text><line style="stroke: #A80036; stroke-width: 1.0; stroke-dasharray: 5.0,5.0;" x1="41" x2="41" y1="74.7266" y2="1085.2422"/><line style="stroke: #A80036; stroke-width: 1.0; stroke-dasharray: 5.0,5.0;" x1="117" x2="117" y1="74.7266" y2="1085.2422"/><line style="stroke: #A80036; stroke-width: 1.0; stroke-dasharray: 5.0,5.0;" x1="284" x2="284" y1="74.7266" y2="1085.2422"/><line style="stroke: #A80036; stroke-width: 1.0; stroke-dasharray: 5.0,5.0;" x1="396" x2="396" y1="74.7266" y2="1085.2422"/><line style="stroke: #A80036; stroke-width: 1.0; stroke-dasharray: 5.0,5.0;" x1="517" x2="517" y1="74.7266" y2="1085.2422"/><line style="stroke: #A80036; stroke-width: 1.0; stroke-dasharray: 5.0,5.0;" x1="647" x2="647" y1="74.7266" y2="1085.2422"/><line style="stroke: #A80036; stroke-width: 1.0; stroke-dasharray: 5.0,5.0;" x1="779" x2="779" y1="74.7266" y2="1085.2422"/><rect fill="#FEFECE" filter="url(#fnmshmyjm67m1)" height="30.2969" style="stroke: #A80036; stroke-width: 1.5;" width="62" x="8" y="39.4297"/><text fill="#000000" font-family="sans-serif" font-size="14" lengthAdjust="spacingAndGlyphs" textLength="48" x="15" y="59.4248">Client1</text><rect fill="#FEFECE" filter="url(#fnmshmyjm67m1)" height="30.2969" style="stroke: #A80036; stroke-width: 1.5;" width="62" x="84" y="39.4297"/><text fill="#000000" font-family="sans-serif" font-size="14" lengthAdjust="spacingAndGlyphs" textLength="48" x="91" y="59.4248">Client2</text><rect fill="#FEFECE" filter="url(#fnmshmyjm67m1)" height="46.5938" style="stroke: #A80036; stroke-width: 1.5;" width="98" x="233" y="23.1328"/><text fill="#000000" font-family="sans-serif" font-size="14" lengthAdjust="spacingAndGlyphs" textLength="32" x="266" y="43.1279">eth1</text><text fill="#000000" font-family="sans-serif" font-size="14" lengthAdjust="spacingAndGlyphs" textLength="84" x="240" y="59.4248">192.168.1.2</text><rect fill="#FEFECE" filter="url(#fnmshmyjm67m1)" height="46.5938" style="stroke: #A80036; stroke-width: 1.5;" width="98" x="345" y="23.1328"/><text fill="#000000" font-family="sans-serif" font-size="14" lengthAdjust="spacingAndGlyphs" textLength="32" x="378" y="43.1279">eth2</text><text fill="#000000" font-family="sans-serif" font-size="14" lengthAdjust="spacingAndGlyphs" textLength="84" x="352" y="59.4248">192.168.2.2</text><rect fill="#FEFECE" filter="url(#fnmshmyjm67m1)" height="46.5938" style="stroke: #A80036; stroke-width: 1.5;" width="116" x="457" y="23.1328"/><text fill="#000000" font-family="sans-serif" font-size="14" lengthAdjust="spacingAndGlyphs" textLength="32" x="499" y="43.1279">eth1</text><text fill="#000000" font-family="sans-serif" font-size="14" lengthAdjust="spacingAndGlyphs" textLength="102" x="464" y="59.4248">192.168.3.221</text><rect fill="#FEFECE" filter="url(#fnmshmyjm67m1)" height="46.5938" style="stroke: #A80036; stroke-width: 1.5;" width="116" x="587" y="23.1328"/><text fill="#000000" font-family="sans-serif" font-size="14" lengthAdjust="spacingAndGlyphs" textLength="32" x="629" y="43.1279">eth2</text><text fill="#000000" font-family="sans-serif" font-size="14" lengthAdjust="spacingAndGlyphs" textLength="102" x="594" y="59.4248">192.168.4.221</text><rect fill="#FEFECE" filter="url(#fnmshmyjm67m1)" height="30.2969" style="stroke: #A80036; stroke-width: 1.5;" width="58" x="748" y="39.4297"/><text fill="#000000" font-family="sans-serif" font-size="14" lengthAdjust="spacingAndGlyphs" textLength="44" x="755" y="59.4248">Server</text><polygon fill="#A80036" points="272,101.8594,282,105.8594,272,109.8594,276,105.8594" style="stroke: #A80036; stroke-width: 1.0;"/><line style="stroke: #A80036; stroke-width: 1.0;" x1="41" x2="278" y1="105.8594" y2="105.8594"/><text fill="#000000" font-family="sans-serif" font-size="13" lengthAdjust="spacingAndGlyphs" textLength="130" x="48" y="100.7935">"INIT(11.2.0.x:7003)"</text><polygon fill="#A80036" points="505,130.9922,515,134.9922,505,138.9922,509,134.9922" style="stroke: #A80036; stroke-width: 1.0;"/><line style="stroke: #A80036; stroke-width: 1.0;" x1="284" x2="511" y1="134.9922" y2="134.9922"/><text fill="#000000" font-family="sans-serif" font-size="13" lengthAdjust="spacingAndGlyphs" textLength="155" x="291" y="129.9263">"INIT(192.168.1.2:7003)"</text><polygon fill="#A80036" points="767,160.125,777,164.125,767,168.125,771,164.125" style="stroke: #A80036; stroke-width: 1.0;"/><line style="stroke: #A80036; stroke-width: 1.0;" x1="517" x2="773" y1="164.125" y2="164.125"/><text fill="#000000" font-family="sans-serif" font-size="13" lengthAdjust="spacingAndGlyphs" textLength="23" x="524" y="159.0591">INIT</text><polygon fill="#A80036" points="528,189.2578,518,193.2578,528,197.2578,524,193.2578" style="stroke: #A80036; stroke-width: 1.0;"/><line style="stroke: #A80036; stroke-width: 1.0;" x1="522" x2="778" y1="193.2578" y2="193.2578"/><text fill="#000000" font-family="sans-serif" font-size="13" lengthAdjust="spacingAndGlyphs" textLength="204" x="534" y="188.1919">"INIT_ACK(192.168.3.221:7003)"</text><polygon fill="#A80036" points="295,218.3906,285,222.3906,295,226.3906,291,222.3906" style="stroke: #A80036; stroke-width: 1.0;"/><line style="stroke: #A80036; stroke-width: 1.0;" x1="289" x2="516" y1="222.3906" y2="222.3906"/><text fill="#000000" font-family="sans-serif" font-size="13" lengthAdjust="spacingAndGlyphs" textLength="204" x="301" y="217.3247">"INIT_ACK(192.168.3.221:7003)"</text><polygon fill="#A80036" points="52,247.5234,42,251.5234,52,255.5234,48,251.5234" style="stroke: #A80036; stroke-width: 1.0;"/><line style="stroke: #A80036; stroke-width: 1.0;" x1="46" x2="283" y1="251.5234" y2="251.5234"/><text fill="#000000" font-family="sans-serif" font-size="13" lengthAdjust="spacingAndGlyphs" textLength="56" x="58" y="246.4575">INIT_ACK</text><polygon fill="#A80036" points="272,276.6563,282,280.6563,272,284.6563,276,280.6563" style="stroke: #A80036; stroke-width: 1.0;"/><line style="stroke: #A80036; stroke-width: 1.0;" x1="41" x2="278" y1="280.6563" y2="280.6563"/><text fill="#000000" font-family="sans-serif" font-size="13" lengthAdjust="spacingAndGlyphs" textLength="92" x="48" y="275.5903">COOKIE_ECHO</text><polygon fill="#A80036" points="505,305.7891,515,309.7891,505,313.7891,509,309.7891" style="stroke: #A80036; stroke-width: 1.0;"/><line style="stroke: #A80036; stroke-width: 1.0;" x1="284" x2="511" y1="309.7891" y2="309.7891"/><text fill="#000000" font-family="sans-serif" font-size="13" lengthAdjust="spacingAndGlyphs" textLength="92" x="291" y="304.7231">COOKIE_ECHO</text><polygon fill="#A80036" points="767,334.9219,777,338.9219,767,342.9219,771,338.9219" style="stroke: #A80036; stroke-width: 1.0;"/><line style="stroke: #A80036; stroke-width: 1.0;" x1="517" x2="773" y1="338.9219" y2="338.9219"/><text fill="#000000" font-family="sans-serif" font-size="13" lengthAdjust="spacingAndGlyphs" textLength="92" x="524" y="333.856">COOKIE_ECHO</text><polygon fill="#A80036" points="528,364.0547,518,368.0547,528,372.0547,524,368.0547" style="stroke: #A80036; stroke-width: 1.0;"/><line style="stroke: #A80036; stroke-width: 1.0;" x1="522" x2="778" y1="368.0547" y2="368.0547"/><text fill="#000000" font-family="sans-serif" font-size="13" lengthAdjust="spacingAndGlyphs" textLength="81" x="534" y="362.9888">COOKIE_ACK</text><polygon fill="#A80036" points="295,393.1875,285,397.1875,295,401.1875,291,397.1875" style="stroke: #A80036; stroke-width: 1.0;"/><line style="stroke: #A80036; stroke-width: 1.0;" x1="289" x2="516" y1="397.1875" y2="397.1875"/><text fill="#000000" font-family="sans-serif" font-size="13" lengthAdjust="spacingAndGlyphs" textLength="81" x="301" y="392.1216">COOKIE_ACK</text><polygon fill="#A80036" points="52,422.3203,42,426.3203,52,430.3203,48,426.3203" style="stroke: #A80036; stroke-width: 1.0;"/><line style="stroke: #A80036; stroke-width: 1.0;" x1="46" x2="283" y1="426.3203" y2="426.3203"/><text fill="#000000" font-family="sans-serif" font-size="13" lengthAdjust="spacingAndGlyphs" textLength="81" x="58" y="421.2544">COOKIE_ACK</text><polygon fill="#A80036" points="384,451.4531,394,455.4531,384,459.4531,388,455.4531" style="stroke: #A80036; stroke-width: 1.0;"/><line style="stroke: #A80036; stroke-width: 1.0;" x1="41" x2="390" y1="455.4531" y2="455.4531"/><text fill="#000000" font-family="sans-serif" font-size="13" lengthAdjust="spacingAndGlyphs" textLength="48" x="48" y="450.3872">INIT (RJ)</text><polygon fill="#A80036" points="52,480.5859,42,484.5859,52,488.5859,48,484.5859" style="stroke: #A80036; stroke-width: 1.0;"/><line style="stroke: #A80036; stroke-width: 1.0;" x1="46" x2="395" y1="484.5859" y2="484.5859"/><text fill="#000000" font-family="sans-serif" font-size="13" lengthAdjust="spacingAndGlyphs" textLength="101" x="58" y="479.52">INIT_ACK (M bit)</text><polygon fill="#A80036" points="384,509.7188,394,513.7188,384,517.7188,388,513.7188" style="stroke: #A80036; stroke-width: 1.0;"/><line style="stroke: #A80036; stroke-width: 1.0;" x1="41" x2="390" y1="513.7188" y2="513.7188"/><text fill="#000000" font-family="sans-serif" font-size="13" lengthAdjust="spacingAndGlyphs" textLength="166" x="48" y="508.6528">"ASCONF(192.168.4.221)"</text><polygon fill="#A80036" points="635,538.8516,645,542.8516,635,546.8516,639,542.8516" style="stroke: #A80036; stroke-width: 1.0;"/><line style="stroke: #A80036; stroke-width: 1.0;" x1="396" x2="641" y1="542.8516" y2="542.8516"/><text fill="#000000" font-family="sans-serif" font-size="13" lengthAdjust="spacingAndGlyphs" textLength="54" x="403" y="537.7856">ASCONF</text><polygon fill="#A80036" points="767,567.9844,777,571.9844,767,575.9844,771,571.9844" style="stroke: #A80036; stroke-width: 1.0;"/><line style="stroke: #A80036; stroke-width: 1.0;" x1="647" x2="773" y1="571.9844" y2="571.9844"/><text fill="#000000" font-family="sans-serif" font-size="13" lengthAdjust="spacingAndGlyphs" textLength="54" x="654" y="566.9185">ASCONF</text><polygon fill="#A80036" points="658,597.1172,648,601.1172,658,605.1172,654,601.1172" style="stroke: #A80036; stroke-width: 1.0;"/><line style="stroke: #A80036; stroke-width: 1.0;" x1="652" x2="778" y1="601.1172" y2="601.1172"/><text fill="#000000" font-family="sans-serif" font-size="13" lengthAdjust="spacingAndGlyphs" textLength="87" x="664" y="596.0513">ASCONF_ACK</text><polygon fill="#A80036" points="407,626.25,397,630.25,407,634.25,403,630.25" style="stroke: #A80036; stroke-width: 1.0;"/><line style="stroke: #A80036; stroke-width: 1.0;" x1="401" x2="646" y1="630.25" y2="630.25"/><text fill="#000000" font-family="sans-serif" font-size="13" lengthAdjust="spacingAndGlyphs" textLength="87" x="413" y="625.1841">ASCONF_ACK</text><polygon fill="#A80036" points="52,655.3828,42,659.3828,52,663.3828,48,659.3828" style="stroke: #A80036; stroke-width: 1.0;"/><line style="stroke: #A80036; stroke-width: 1.0;" x1="46" x2="395" y1="659.3828" y2="659.3828"/><text fill="#000000" font-family="sans-serif" font-size="13" lengthAdjust="spacingAndGlyphs" textLength="87" x="58" y="654.3169">ASCONF_ACK</text><polygon fill="#A80036" points="272,684.5156,282,688.5156,272,692.5156,276,688.5156" style="stroke: #A80036; stroke-width: 1.0;"/><line style="stroke: #A80036; stroke-width: 1.0;" x1="41" x2="278" y1="688.5156" y2="688.5156"/><text fill="#000000" font-family="sans-serif" font-size="13" lengthAdjust="spacingAndGlyphs" textLength="35" x="48" y="683.4497">DATA</text><polygon fill="#A80036" points="505,713.6484,515,717.6484,505,721.6484,509,717.6484" style="stroke: #A80036; stroke-width: 1.0;"/><line style="stroke: #A80036; stroke-width: 1.0;" x1="284" x2="511" y1="717.6484" y2="717.6484"/><text fill="#000000" font-family="sans-serif" font-size="13" lengthAdjust="spacingAndGlyphs" textLength="35" x="291" y="712.5825">DATA</text><polygon fill="#A80036" points="767,742.7813,777,746.7813,767,750.7813,771,746.7813" style="stroke: #A80036; stroke-width: 1.0;"/><line style="stroke: #A80036; stroke-width: 1.0;" x1="517" x2="773" y1="746.7813" y2="746.7813"/><text fill="#000000" font-family="sans-serif" font-size="13" lengthAdjust="spacingAndGlyphs" textLength="35" x="524" y="741.7153">DATA</text><polygon fill="#A80036" points="528,771.9141,518,775.9141,528,779.9141,524,775.9141" style="stroke: #A80036; stroke-width: 1.0;"/><line style="stroke: #A80036; stroke-width: 1.0;" x1="522" x2="778" y1="775.9141" y2="775.9141"/><text fill="#000000" font-family="sans-serif" font-size="13" lengthAdjust="spacingAndGlyphs" textLength="35" x="534" y="770.8481">SACK</text><polygon fill="#A80036" points="295,801.0469,285,805.0469,295,809.0469,291,805.0469" style="stroke: #A80036; stroke-width: 1.0;"/><line style="stroke: #A80036; stroke-width: 1.0;" x1="289" x2="516" y1="805.0469" y2="805.0469"/><text fill="#000000" font-family="sans-serif" font-size="13" lengthAdjust="spacingAndGlyphs" textLength="35" x="301" y="799.981">SACK</text><polygon fill="#A80036" points="52,830.1797,42,834.1797,52,838.1797,48,834.1797" style="stroke: #A80036; stroke-width: 1.0;"/><line style="stroke: #A80036; stroke-width: 1.0;" x1="46" x2="283" y1="834.1797" y2="834.1797"/><text fill="#000000" font-family="sans-serif" font-size="13" lengthAdjust="spacingAndGlyphs" textLength="35" x="58" y="829.1138">SACK</text><polygon fill="#A80036" points="658,859.3125,648,863.3125,658,867.3125,654,863.3125" style="stroke: #A80036; stroke-width: 1.0;"/><line style="stroke: #A80036; stroke-width: 1.0;" x1="652" x2="778" y1="863.3125" y2="863.3125"/><text fill="#000000" font-family="sans-serif" font-size="13" lengthAdjust="spacingAndGlyphs" textLength="75" x="664" y="858.2466">HEARTBEAT</text><polygon fill="#A80036" points="407,888.4453,397,892.4453,407,896.4453,403,892.4453" style="stroke: #A80036; stroke-width: 1.0;"/><line style="stroke: #A80036; stroke-width: 1.0;" x1="401" x2="646" y1="892.4453" y2="892.4453"/><text fill="#000000" font-family="sans-serif" font-size="13" lengthAdjust="spacingAndGlyphs" textLength="75" x="413" y="887.3794">HEARTBEAT</text><polygon fill="#A80036" points="52,917.5781,42,921.5781,52,925.5781,48,921.5781" style="stroke: #A80036; stroke-width: 1.0;"/><line style="stroke: #A80036; stroke-width: 1.0;" x1="46" x2="395" y1="921.5781" y2="921.5781"/><text fill="#000000" font-family="sans-serif" font-size="13" lengthAdjust="spacingAndGlyphs" textLength="75" x="58" y="916.5122">HEARTBEAT</text><polygon fill="#A80036" points="384,946.7109,394,950.7109,384,954.7109,388,950.7109" style="stroke: #A80036; stroke-width: 1.0;"/><line style="stroke: #A80036; stroke-width: 1.0;" x1="41" x2="390" y1="950.7109" y2="950.7109"/><text fill="#000000" font-family="sans-serif" font-size="13" lengthAdjust="spacingAndGlyphs" textLength="108" x="48" y="945.645">HEARTBEAT_ACK</text><polygon fill="#A80036" points="635,975.8438,645,979.8438,635,983.8438,639,979.8438" style="stroke: #A80036; stroke-width: 1.0;"/><line style="stroke: #A80036; stroke-width: 1.0;" x1="396" x2="641" y1="979.8438" y2="979.8438"/><text fill="#000000" font-family="sans-serif" font-size="13" lengthAdjust="spacingAndGlyphs" textLength="108" x="403" y="974.7778">HEARTBEAT_ACK</text><polygon fill="#A80036" points="767,1004.9766,777,1008.9766,767,1012.9766,771,1008.9766" style="stroke: #A80036; stroke-width: 1.0;"/><line style="stroke: #A80036; stroke-width: 1.0;" x1="647" x2="773" y1="1008.9766" y2="1008.9766"/><text fill="#000000" font-family="sans-serif" font-size="13" lengthAdjust="spacingAndGlyphs" textLength="108" x="654" y="1003.9106">HEARTBEAT_ACK</text><polygon fill="#A80036" points="272,1034.1094,282,1038.1094,272,1042.1094,276,1038.1094" style="stroke: #A80036; stroke-width: 1.0;"/><line style="stroke: #A80036; stroke-width: 1.0;" x1="117" x2="278" y1="1038.1094" y2="1038.1094"/><text fill="#000000" font-family="sans-serif" font-size="13" lengthAdjust="spacingAndGlyphs" textLength="130" x="124" y="1033.0435">"INIT(11.2.0.x:7003)"</text><polygon fill="#A80036" points="128,1063.2422,118,1067.2422,128,1071.2422,124,1067.2422" style="stroke: #A80036; stroke-width: 1.0;"/><line style="stroke: #A80036; stroke-width: 1.0;" x1="122" x2="283" y1="1067.2422" y2="1067.2422"/><text fill="#000000" font-family="sans-serif" font-size="13" lengthAdjust="spacingAndGlyphs" textLength="143" x="134" y="1062.1763">"ABORT(port collision)"</text><!--
@startuml distributed-client
hide footbox
box "client"
participant "Client1"
participant "Client2"
participant "eth1\n192.168.1.2" as c1
participant "eth2\n192.168.2.2" as c2
end box
box "server"
participant "eth1\n192.168.3.221" as s1
participant "eth2\n192.168.4.221" as s2
participant "Server"
end box

Client1 -> c1 : "INIT(11.2.0.x:7003)"
c1 -> s1 : "INIT(192.168.1.2:7003)"
s1 -> Server : INIT

Server -> s1 : "INIT_ACK(192.168.3.221:7003)"
s1 -> c1 : "INIT_ACK(192.168.3.221:7003)"
c1 -> Client1 : INIT_ACK

Client1 -> c1 : COOKIE_ECHO
c1 -> s1 : COOKIE_ECHO
s1 -> Server : COOKIE_ECHO

Server -> s1 : COOKIE_ACK
s1 -> c1 : COOKIE_ACK
c1 -> Client1 : COOKIE_ACK

Client1 -> c2 : INIT (RJ)
c2 -> Client1 : INIT_ACK (M bit)

Client1 -> c2 : "ASCONF(192.168.4.221)"
c2 -> s2 : ASCONF
s2 -> Server : ASCONF

Server -> s2 : ASCONF_ACK
s2 -> c2 : ASCONF_ACK
c2 -> Client1: ASCONF_ACK

Client1 -> c1 : DATA
c1 -> s1 : DATA
s1 -> Server : DATA
Server -> s1 : SACK
s1 -> c1 : SACK
c1 -> Client1 : SACK

Server -> s2 : HEARTBEAT
s2 -> c2 : HEARTBEAT
c2 -> Client1 : HEARTBEAT
Client1 -> c2 : HEARTBEAT_ACK
c2 -> s2 : HEARTBEAT_ACK
s2 -> Server : HEARTBEAT_ACK

Client2 -> c1 : "INIT(11.2.0.x:7003)"
c1 -> Client2 : "ABORT(port collision)"
@enduml

PlantUML version 1.2018.13(Mon Nov 26 18:11:51 CET 2018)
(GPL source distribution)
Java Runtime: OpenJDK Runtime Environment
JVM: OpenJDK 64-Bit Server VM
Java Version: 11.0.14.1+1-Ubuntu-0ubuntu1.20.04
Operating System: Linux
OS Version: 5.10.16.3-microsoft-standard-WSL2
Default Encoding: UTF-8
Language: en
Country: null
--></g></svg>